HIERARCHY
ROOT Hips
{
	OFFSET 0.00000 0.00000 0.00000
	CHANNELS 6 Xposition Yposition Zposition Zrotation Yrotation Xrotation 
	JOINT LHipJoint
	{
		OFFSET 0 0 0
		CHANNELS 3 Zrotation Yrotation Xrotation
		JOINT LeftHip
		{
			OFFSET 1.58895 -1.83665 0.71753
			CHANNELS 3 Zrotation Yrotation Xrotation
			JOINT LeftKnee
			{
				OFFSET 2.50528 -6.88321 0.00000
				CHANNELS 3 Zrotation Yrotation Xrotation
				JOINT LeftAnkle
				{
					OFFSET 2.63244 -7.23257 0.00000
					CHANNELS 3 Zrotation Yrotation Xrotation
					JOINT LeftToe
					{
						OFFSET 0.23691 -0.65090 1.72750
						CHANNELS 3 Zrotation Yrotation Xrotation
						End Site
						{
							OFFSET 0.00000 -0.00000 0.92561
						}
					}
				}
			}
		}
	}
	JOINT RHipJoint
	{
		OFFSET 0 0 0
		CHANNELS 3 Zrotation Yrotation Xrotation
		JOINT RightHip
		{
			OFFSET -1.51435 -1.83665 0.71753
			CHANNELS 3 Zrotation Yrotation Xrotation
			JOINT RightKnee
			{
				OFFSET -2.54551 -6.99375 0.00000
				CHANNELS 3 Zrotation Yrotation Xrotation
				JOINT RightAnkle
				{
					OFFSET -2.66027 -7.30903 0.00000
					CHANNELS 3 Zrotation Yrotation Xrotation
					JOINT RightToe
					{
						OFFSET -0.22981 -0.63138 2.03959
						CHANNELS 3 Zrotation Yrotation Xrotation
						End Site
						{
							OFFSET -0.00000 -0.00000 1.07060
						}
					}
				}
			}
		}
	}
	JOINT lowerback
	{
		OFFSET 0 0 0
		CHANNELS 3 Zrotation Yrotation Xrotation
		JOINT Chest
		{
			OFFSET -0.02651 1.86275 -0.11152
			CHANNELS 3 Zrotation Yrotation Xrotation
			JOINT Chest2
			{
				OFFSET 0.01019 1.86224 0.04087
				CHANNELS 3 Zrotation Yrotation Xrotation
				JOINT lowerneck
				{
					OFFSET 0 0 0
					CHANNELS 3 Zrotation Yrotation Xrotation
					JOINT Neck
					{
						OFFSET -0.01926 1.80512 0.08867
						CHANNELS 3 Zrotation Yrotation Xrotation
						JOINT Head
						{
							OFFSET 0.05516 1.76451 -0.38475
							CHANNELS 3 Zrotation Yrotation Xrotation
							End Site
							{
								OFFSET 0.01592 1.82587 -0.14001
							}
						}
					}
				}
				JOINT LeftCollar
				{
					OFFSET 0 0 0
					CHANNELS 3 Zrotation Yrotation Xrotation
					JOINT LeftShoulder
					{
						OFFSET 3.47116 1.51376 0.14491
CHANNELS 3 Zrotation Xrotation Yrotation
						JOINT LeftElbow
						{
OFFSET 0 -4.780950 0.000000
CHANNELS 3 Zrotation Xrotation Yrotation
							JOINT LeftWrist
							{
OFFSET 0 -3.586150 -0.000000
CHANNELS 3 Zrotation Xrotation Yrotation
								JOINT lhand
								{
									OFFSET 0 0 0
CHANNELS 3 Zrotation Xrotation Yrotation
									JOINT LFingers
									{
OFFSET 0 -0.659810 0.000000
CHANNELS 3 Zrotation Xrotation Yrotation
										End Site
										{
OFFSET 0 -0.531960 0.000000
										}
									}
								}
								JOINT LThumb
								{
OFFSET 0 0.000000 0.000000
CHANNELS 3 Zrotation Xrotation Yrotation
									End Site
									{
OFFSET 0 -0.540080 0.540080
									}
								}
							}
						}
					}
				}
				JOINT RightCollar
				{
					OFFSET 0 0 0
					CHANNELS 3 Zrotation Yrotation Xrotation
					JOINT RightShoulder
					{
						OFFSET -3.31725 1.61216 0.35156
CHANNELS 3 Zrotation Xrotation Yrotation
						JOINT RightElbow
						{
OFFSET 0 -4.489130 0.000000
CHANNELS 3 Zrotation Xrotation Yrotation
							JOINT RightWrist
							{
OFFSET 0 -3.705100 0.000000
CHANNELS 3 Zrotation Xrotation Yrotation
								JOINT rhand
								{
									OFFSET 0 0 0
CHANNELS 3 Zrotation Xrotation Yrotation
									JOINT RFingers
									{
OFFSET 0 -0.449140 0.000000
CHANNELS 3 Zrotation Xrotation Yrotation
										End Site
										{
OFFSET 0 -0.362110 0.000000
										}
									}
								}
								JOINT RThumb
								{
OFFSET 0 0.000000 0.000000
CHANNELS 3 Zrotation Xrotation Yrotation
									End Site
									{
OFFSET 0 -0.367630 0.367630
									}
								}
							}
						}
					}
				}
			}
		}
	}
}
MOTION
Frames: 12
Frame Time: 0.008333333333333333
-0.654902 18.667227 7.158276 -3.260399 -0.643105 1.180892 0.000000 0.000000 0.000000 -11.682703 -5.773279 0.782517 1.606023 7.992178 22.690350 1.670834 1.540900 -25.028914 8.945225 -16.772304 -55.900519 0.000000 0.000000 0.000000 16.444580 -2.652195 11.941149 0.000000 0.000000 0.000000 -1.038567 -3.170655 -20.638406 -0.158834 2.567762 -7.077620 -0.680505 0.177279 9.049877 1.004277 0.246688 -5.662282 1.422280 0.217614 -11.205410 -0.061882 -1.595578 -20.165435 2.263934 -3.031303 28.128313 0.372729 -1.036080 12.776269 0.000000 0.000000 0.000000 74.424558 6.349133 48.934420 32.928718 -43.275223 13.373211 -11.984530 -34.719502 23.653331 0.000000 0.000000 0.000000 -7.125000 0.000000 0.000000 -24.809377 7.476495 -23.784138 0.000000 0.000000 0.000000 -73.858735 14.932190 -39.968339 -42.052690 -49.238422 -19.980976 29.051482 -40.956484 30.550713 0.000000 0.000000 0.000000 7.125000 0.000000 0.000000 58.701527 51.417644 -13.094999
-0.646506 18.668400 7.128456 -3.311767 -0.597473 1.235797 0.000000 0.000000 0.000000 -11.587895 -5.661787 0.497000 1.610512 8.002831 22.722619 1.648383 1.444896 -24.826068 8.946820 -16.773387 -55.906172 0.000000 0.000000 0.000000 16.474664 -2.637879 11.765682 0.000000 0.000000 0.000000 -1.024211 -3.255315 -20.551539 -0.179055 2.725084 -7.514325 -0.803151 0.136360 9.257658 1.167160 0.188709 -5.409037 1.677247 0.204341 -11.045549 0.147688 -1.489278 -19.828058 1.875709 -2.823410 28.150675 0.225265 -0.977978 12.701073 0.000000 0.000000 0.000000 72.762674 6.669389 49.547554 33.235209 -43.509911 13.583730 -12.226668 -34.292963 24.007325 0.000000 0.000000 0.000000 -7.125000 0.000000 0.000000 -24.903864 7.143965 -24.076027 0.000000 0.000000 0.000000 -73.471758 14.500999 -41.020308 -40.816646 -48.546324 -19.049077 29.136032 -39.915928 30.198990 0.000000 0.000000 0.000000 7.125000 0.000000 0.000000 58.415295 51.171308 -12.536740
-0.637293 18.666428 7.088413 -3.325863 -0.553853 1.287482 0.000000 0.000000 0.000000 -11.564528 -5.640627 0.187649 1.625351 8.037772 22.828775 1.651422 1.419473 -24.838297 8.949011 -16.774767 -55.913736 0.000000 0.000000 0.000000 16.478025 -2.611105 11.556190 0.000000 0.000000 0.000000 -1.005607 -3.375443 -20.444438 -0.208663 2.939902 -8.111471 -0.739714 0.128273 9.916166 1.147153 0.183104 -5.318694 1.623556 0.197795 -11.340690 0.158292 -1.516038 -19.538059 1.959404 -2.892986 28.249456 0.246206 -0.997446 12.683725 0.000000 0.000000 0.000000 71.316641 6.948626 49.953568 33.537538 -43.739132 13.792291 -12.376102 -34.110723 24.016286 0.000000 0.000000 0.000000 -7.125000 0.000000 0.000000 -24.984253 7.132607 -24.178764 0.000000 0.000000 0.000000 -71.828105 15.382175 -41.076424 -41.476144 -48.916732 -19.545869 28.707403 -40.178960 30.320070 0.000000 0.000000 0.000000 7.125000 0.000000 0.000000 58.227845 51.328847 -12.746403
-0.629994 18.657503 7.040663 -3.473245 -0.522837 1.270663 0.000000 0.000000 0.000000 -11.401260 -5.583367 -0.092014 1.646557 8.087335 22.979672 1.673271 1.406197 -24.993242 8.943843 -16.771374 -55.895623 0.000000 0.000000 0.000000 16.662527 -2.589871 11.405801 0.000000 0.000000 0.000000 -1.001710 -3.440037 -20.442866 -0.235830 3.125145 -8.627429 -0.569811 0.129579 10.790232 1.155724 0.210668 -5.262801 1.535540 0.201461 -11.806458 0.141916 -1.538200 -19.058220 2.082021 -2.951827 28.203440 0.289886 -1.013560 12.569619 0.000000 0.000000 0.000000 69.953961 7.163939 50.381907 33.608997 -43.792999 13.841751 -12.306184 -33.928528 24.110896 0.000000 0.000000 0.000000 -7.125000 0.000000 0.000000 -24.936093 7.046432 -24.167176 0.000000 0.000000 0.000000 -71.229434 15.010001 -42.057010 -39.968866 -48.051234 -18.416111 29.145363 -40.022144 30.932278 0.000000 0.000000 0.000000 7.125000 0.000000 0.000000 59.149129 51.649001 -13.697572
-0.622649 18.645418 6.987330 -3.556510 -0.644923 1.290017 0.000000 0.000000 0.000000 -11.371493 -5.579883 -0.383418 1.672126 8.146870 23.161056 1.725584 1.553600 -25.430963 8.909424 -16.749019 -55.776331 0.000000 0.000000 0.000000 16.796063 -2.403220 11.232402 0.000000 0.000000 0.000000 -1.027834 -3.427615 -20.675618 -0.238853 3.144840 -8.682312 -0.559710 0.159024 11.583742 1.178062 0.253798 -5.152098 1.548097 0.224287 -12.163664 0.119050 -1.498375 -18.475523 2.230242 -2.916579 27.921445 0.359683 -0.989646 12.339653 0.000000 0.000000 0.000000 68.527772 7.317496 51.073236 33.672626 -43.840721 13.885794 -12.539500 -33.599153 24.447751 0.000000 0.000000 0.000000 -7.125000 0.000000 0.000000 -25.026971 6.729665 -24.447420 0.000000 0.000000 0.000000 -70.234176 14.785750 -42.825790 -39.200931 -47.589265 -17.847014 28.928039 -39.752868 31.272413 0.000000 0.000000 0.000000 7.125000 0.000000 0.000000 59.334884 51.909349 -14.246904
-0.617755 18.629722 6.928502 -3.589887 -0.870966 1.236357 0.000000 0.000000 0.000000 -11.408569 -5.550744 -0.579847 1.694657 8.198839 23.319764 1.778063 1.737262 -25.878639 8.865982 -16.720690 -55.625435 0.000000 0.000000 0.000000 16.883009 -2.135786 11.147102 0.000000 0.000000 0.000000 -1.058944 -3.446695 -20.967108 -0.265059 3.311714 -9.147730 -0.710751 0.245427 12.455671 1.239107 0.349608 -4.944569 1.681332 0.285905 -12.461245 0.141604 -1.434849 -17.989902 2.248537 -2.818458 27.551075 0.381057 -0.950539 12.091882 0.000000 0.000000 0.000000 67.038196 7.312392 51.913182 33.801305 -43.936930 13.975030 -12.348045 -33.400693 24.511328 0.000000 0.000000 0.000000 -7.125000 0.000000 0.000000 -24.916637 6.674738 -24.342829 0.000000 0.000000 0.000000 -68.968963 14.837133 -43.383559 -39.061567 -47.503981 -17.744117 28.577328 -39.520411 31.241718 0.000000 0.000000 0.000000 7.125000 0.000000 0.000000 59.050033 51.954791 -14.205526
-0.612461 18.615130 6.861666 -3.564453 -1.130825 1.220790 0.000000 0.000000 0.000000 -11.491223 -5.565049 -0.797005 1.708607 8.230686 23.416941 1.816384 1.872376 -26.203117 8.795090 -16.673954 -55.378680 0.000000 0.000000 0.000000 16.911906 -1.809515 10.988179 0.000000 0.000000 0.000000 -1.084477 -3.547819 -21.249362 -0.323937 3.655347 -10.109240 -0.906297 0.321490 13.400655 1.245500 0.413799 -4.749583 1.786101 0.333983 -12.816131 0.224644 -1.314463 -17.642191 2.223115 -2.650043 27.306110 0.385257 -0.876223 11.921184 0.000000 0.000000 0.000000 65.650830 7.540226 52.321427 33.971909 -44.063836 14.093557 -12.174630 -33.227722 24.500209 0.000000 0.000000 0.000000 -7.125000 0.000000 0.000000 -24.823708 6.688305 -24.222944 0.000000 0.000000 0.000000 -67.659939 14.754122 -43.848558 -38.928791 -47.422249 -17.646299 28.334202 -39.339456 31.181691 0.000000 0.000000 0.000000 7.125000 0.000000 0.000000 58.813141 51.960957 -14.115457
-0.609169 18.613565 6.794505 -3.469706 -1.459903 1.313961 0.000000 0.000000 0.000000 -11.619841 -5.539722 -1.125910 1.718551 8.253467 23.486515 1.817053 2.067862 -26.287849 8.763362 -16.653027 -55.268195 0.000000 0.000000 0.000000 16.846835 -1.374049 10.715377 0.000000 0.000000 0.000000 -1.082577 -3.716277 -21.322433 -0.367451 3.893794 -10.778111 -1.169835 0.420449 14.160601 1.157557 0.481210 -4.527029 1.822333 0.382633 -13.025743 0.516318 -1.169841 -17.041873 2.124596 -2.473450 26.700346 0.328232 -0.792875 11.557866 0.000000 0.000000 0.000000 64.260318 7.910617 52.443198 34.359148 -44.348824 14.363646 -11.531453 -33.217409 24.485711 0.000000 0.000000 0.000000 -7.125000 0.000000 0.000000 -24.474888 6.711981 -23.790921 0.000000 0.000000 0.000000 -65.993156 14.582674 -44.398889 -38.974766 -47.450605 -17.680245 28.048306 -38.972524 30.918954 0.000000 0.000000 0.000000 7.125000 0.000000 0.000000 58.342114 51.843027 -13.707282
-0.608622 18.621024 6.727747 -3.388314 -1.778194 1.519819 0.000000 0.000000 0.000000 -11.680178 -5.444993 -1.643276 1.734390 8.289431 23.596749 1.794030 2.250661 -26.201950 8.784262 -16.666875 -55.341082 0.000000 0.000000 0.000000 16.778557 -0.910880 10.321056 0.000000 0.000000 0.000000 -1.054242 -3.900230 -21.170960 -0.354476 3.824791 -10.584328 -1.413839 0.557214 14.775686 1.055733 0.598338 -4.261136 1.817216 0.450398 -13.098264 0.531510 -1.135316 -16.568088 2.247962 -2.433766 26.020749 0.378090 -0.770957 11.205548 0.000000 0.000000 0.000000 62.719560 8.217435 52.299161 34.958930 -44.782343 14.784570 -11.174387 -33.566909 24.468729 0.000000 0.000000 0.000000 -7.125000 0.000000 0.000000 -24.281302 6.732582 -23.548860 0.000000 0.000000 0.000000 -63.981098 14.703973 -44.834933 -39.450690 -47.740634 -18.031756 27.825279 -38.947091 30.801177 0.000000 0.000000 0.000000 7.125000 0.000000 0.000000 58.062066 51.807176 -13.528187
-0.606224 18.631635 6.657541 -3.412595 -1.991052 1.613387 0.000000 0.000000 0.000000 -11.617604 -5.361772 -2.117923 1.761297 8.350019 23.782505 1.768491 2.343383 -26.061237 8.780644 -16.664463 -55.328304 0.000000 0.000000 0.000000 16.820662 -0.581544 10.012727 0.000000 0.000000 0.000000 -1.014140 -4.223443 -20.992460 -0.387496 3.996136 -11.065985 -1.547168 0.660060 15.581067 1.014860 0.694276 -3.916419 1.820478 0.501499 -13.191764 0.483929 -1.131477 -16.401784 2.321551 -2.413818 25.485086 0.415537 -0.765955 10.972802 0.000000 0.000000 0.000000 61.053257 8.529755 52.060166 35.552650 -45.202314 15.204327 -11.201634 -34.023447 24.468494 0.000000 0.000000 0.000000 -7.125000 0.000000 0.000000 -24.296363 6.732555 -23.566763 0.000000 0.000000 0.000000 -61.915789 15.054888 -44.823122 -40.156850 -48.161916 -18.556233 27.144282 -38.906724 30.717174 0.000000 0.000000 0.000000 7.125000 0.000000 0.000000 57.478670 51.877781 -13.412504
-0.602979 18.642051 6.580984 -3.556683 -2.161811 1.596374 0.000000 0.000000 0.000000 -11.458986 -5.420813 -2.472428 1.799272 8.434728 24.042546 1.758405 2.461501 -26.040501 8.738899 -16.636736 -55.182673 0.000000 0.000000 0.000000 16.993635 -0.321609 9.799011 0.000000 0.000000 0.000000 -0.972114 -4.577536 -20.816295 -0.434362 4.229288 -11.722603 -1.621416 0.726936 16.615157 1.044773 0.758259 -3.575086 1.876131 0.537679 -13.423345 0.339778 -1.078694 -16.135274 2.497941 -2.322495 24.904164 0.516069 -0.726510 10.707888 0.000000 0.000000 0.000000 59.332153 8.834292 51.768126 36.024222 -45.529702 15.539881 -10.892537 -34.110646 24.611086 0.000000 0.000000 0.000000 -7.125000 0.000000 0.000000 -24.112917 6.603256 -23.415228 0.000000 0.000000 0.000000 -59.976143 15.442010 -44.350062 -40.873765 -48.578781 -19.091946 26.391262 -38.881350 30.733280 0.000000 0.000000 0.000000 7.125000 0.000000 0.000000 56.935722 52.027859 -13.449361
-0.602549 18.648313 6.502191 -3.771889 -2.302444 1.579105 0.000000 0.000000 0.000000 -11.184410 -5.399802 -2.894041 1.841683 8.528087 24.330018 1.746295 2.502850 -25.972243 8.714636 -16.620554 -55.098029 0.000000 0.000000 0.000000 17.251614 -0.088977 9.576105 0.000000 0.000000 0.000000 -0.934324 -4.889786 -20.657158 -0.436923 4.241443 -11.756977 -1.702286 0.764594 17.693626 1.158009 0.790131 -3.302972 2.038014 0.565719 -13.758976 0.140433 -0.987545 -15.553889 2.591527 -2.129515 24.106584 0.609207 -0.660653 10.303629 0.000000 0.000000 0.000000 57.527785 9.437709 50.970191 36.586080 -45.911347 15.942252 -10.552508 -33.870258 24.848029 0.000000 0.000000 0.000000 -7.125000 0.000000 0.000000 -23.903848 6.385723 -23.277619 0.000000 0.000000 0.000000 -58.210830 15.818242 -43.467444 -41.739219 -49.065948 -19.743688 25.769703 -38.884765 30.663504 0.000000 0.000000 0.000000 7.125000 0.000000 0.000000 56.401715 52.096869 -13.349986
